<svg viewBox="0 0 24 24" data-name="025_SCIENCE" id="_025_SCIENCE" xmlns="http://www.w3.org/2000/svg" ><g id="SVGRepo_bgCarrier" stroke-width="0"></g><g id="SVGRepo_tracerCarrier" stroke-linecap="round" stroke-linejoin="round"></g><g id="SVGRepo_iconCarrier"><path class="cls-1" d="M12,22A10,10,0,0,1,5,4.87,1,1,0,1,1,6.39,6.3a8,8,0,1,0,3-1.86,1,1,0,0,1-.65-1.89A9.81,9.81,0,0,1,12,2a10,10,0,0,1,0,20Z"></path><path class="cls-1" d="M12,18a6,6,0,0,1-6-6,5.77,5.77,0,0,1,.09-1,1,1,0,1,1,2,.34A3.82,3.82,0,0,0,8,12,4,4,0,1,0,9.74,8.7,1,1,0,0,1,8.61,7.05,5.93,5.93,0,0,1,12,6a6,6,0,0,1,0,12Z"></path><path class="cls-1" d="M12,10a2,2,0,1,0,2,2A2,2,0,0,0,12,10Z"></path><path class="cls-1" d="M18,3a2,2,0,1,0,2,2A2,2,0,0,0,18,3Z"></path><path class="cls-1" d="M15,14a2,2,0,1,0,2,2A2,2,0,0,0,15,14Z"></path></g></svg>
